<svg width="200" height="235" viewBox="0 0 200 235" fill="none" xmlns="http://www.w3.org/2000/svg">
<path d="M77 130.5L148.5 58L164.5 90.5L175 113.5L178.5 130.5L185.5 147L191.5 166L192.5 179.5L193.5 188L191.5 198.5L184 209L174 216.5L125.5 223.5L77 130.5Z" fill="#D9D9D9"/>
<path d="M6.62337 140.128L113.642 145.449C115.294 145.531 116.663 146.758 116.925 148.391L128.963 223.404C129.32 225.628 127.514 227.605 125.267 227.45L20.8248 220.23C19.2502 220.121 17.9432 218.972 17.6338 217.424L3.01781 144.31C2.57091 142.074 4.34641 140.015 6.62337 140.128Z" fill="#D9D9D9" stroke="black"/>
<path d="M24.0751 220.496L126.41 227.771C127.112 227.821 127.815 227.706 128.464 227.435L163.598 212.754C165.097 212.128 166.826 212.77 167.553 214.224L168 214L167.571 214.257C168.199 215.303 167.74 216.663 166.607 217.114L126.128 233.239C125.652 233.429 125.14 233.512 124.628 233.482L23.6225 227.54C21.7864 227.432 20.3409 225.891 20.3276 224.044C20.3128 221.998 22.0448 220.352 24.0751 220.496Z" fill="#D9D9D9" stroke="black"/>
<path d="M170.305 50.4515C173.166 59.0569 173.738 65.7239 167.444 69.5746C160.236 73.9848 157.206 68.6185 149.929 62.8815C142.651 57.1446 142.651 44.7146 149.929 40.3975C156.001 38.0216 165.368 42.3375 170.305 50.4515Z" fill="#121212"/>
<path d="M91.1578 52.3638C90.5534 59.0294 79.7149 66.7061 77.8077 68.6184C73.0397 73.3991 63.5617 63.368 64.1642 56.675C64.7667 49.9819 68.6229 43.2948 75.9004 38.9776C82.5755 37.0653 92.1114 41.8461 91.1578 52.3638Z" fill="#121212"/>
<path d="M160.269 73.3992V73.4874L160.3 73.5703C164.807 85.9403 165.68 95.9459 164.137 104.007C162.595 112.061 158.634 118.21 153.404 122.865C142.924 132.193 127.333 135.528 115.941 136.005C104.612 136.002 89.2408 131.022 78.7313 121.905C73.4819 117.351 69.4683 111.785 67.7569 105.317C66.0478 98.8577 66.6221 91.4505 70.629 83.1787L70.679 83.0754V82.9607C70.679 81.8666 71.0395 80.4028 71.7468 78.6585C72.4506 76.9229 73.4828 74.9453 74.7908 72.8347C77.4068 68.6138 81.1075 63.891 85.4329 59.5504C89.7593 55.2089 94.6959 51.2646 99.7795 48.5861C104.866 45.9057 110.062 44.5127 114.926 45.2095L114.99 45.2185L115.053 45.2115C127.767 43.795 139.084 48.5292 147.233 54.8127C151.307 57.9537 154.577 61.4731 156.824 64.7846C159.083 68.1124 160.269 71.1712 160.269 73.3992Z" fill="#D9D9D9" stroke="black"/>
<path d="M120.719 102.275C120.719 103.965 116.877 108.777 112.137 108.777C107.397 108.777 103.554 103.965 103.554 102.275C103.554 100.585 107.397 99.2153 112.137 99.2153C116.877 99.2153 120.719 100.585 120.719 102.275Z" fill="#090808"/>
<path d="M68.272 127.9L70.1792 121.207L72.0863 115.47L80.6685 124.075L90.2044 129.812L90.2044 135.549L88.2972 140.33L86.39 143.198L60.6433 142.242L64.4576 136.505L66.3648 130.768L68.272 127.9Z" fill="black"/>
<path d="M92.1114 139.374L92.1114 135.549L91.2917 130.768L97.8329 133.637L104.508 135.549L111.183 136.505L117.858 136.505L127.394 135.549L137.883 132.681L135.976 136.505L133.249 139.374L131.342 146.067L131.342 164.234L129.301 171.883L127.394 174.751L123.58 180.488L119.899 163.278L118.812 154.672L117.858 150.848L117.038 147.979L115.131 145.111L111.183 144.155L90.2042 143.198L91.2917 142.242L92.1114 139.374Z" fill="black"/>
<path d="M136.93 139.374L138.837 135.549L140.481 133.7L141.698 131.724L146.465 129.812L150 128.075L152.5 126.312L154 125.137L155.5 123.962L157 122.2L158.5 120.437L161 116.912L162.676 114.514L163.63 111.645L164.584 106.864L165.537 101.128L165.537 92.5222L168.398 98.2591L172.212 105.908L173.166 108.777L174.119 111.645L175.073 114.514L176.027 117.382L176.98 121.207L177.934 125.031L178.887 128.856L178.887 130.768L177.934 131.724L177.934 134.593L177.934 139.374L176.98 142.242L176.027 147.023L174.119 151.804L173.166 156.584L172.212 160.409L171.259 163.278L170.305 167.102L167.444 171.883L164.584 176.664L161.723 181.444L147.419 195.787L135.023 209.173L127.394 210.129L123.58 184.313L132.162 172.839L134.069 167.102L134.069 159.453L135.023 147.023L135.976 143.198L136.93 139.374Z" fill="black"/>
<path d="M68.272 127.9L70.1792 121.207L72.0863 115.47L80.6685 124.075L90.2044 129.812L90.2044 135.549L88.2972 140.33L86.39 143.198L60.6433 142.242L64.4576 136.505L66.3648 130.768L68.272 127.9Z" fill="black"/>
<path d="M168.006 174.751L169.913 173.795L174.681 171.883L177.542 170.927H183.263L186.124 171.883L187.077 172.839L188.985 173.795L190.892 174.751L192.799 176.664L193.752 179.532L194.706 182.401L195.66 185.269V190.05L194.706 195.787L193.752 198.655L191.845 201.524L189.938 204.392L188.031 206.304L185.17 210.129L181.356 212.998L175.634 215.866L169 217V212.998L166 211H157H139L146.073 200.568L152.748 192.918L159.423 187.181L164.191 182.401L166.099 178.576L168.006 174.751Z" fill="black"/>
<path d="M178.887 131.725L177.934 129.812L178.887 128.856L182.702 137.461L185.562 145.111L189.377 154.672L191.284 162.321L192.238 166.146L193.191 171.883L194.145 180.488L191.284 175.708L191.284 169.015L188.423 158.497L186.516 152.76L178.887 131.725Z" fill="black"/>
<path d="M167.5 175.662L169 172.137L170 170.375L171.5 168.612L173 167.437L175 166.85L177 166.262H179.5H182H183.5L185 166.85L187 168.025L188.423 169.014L189.377 169.971H190.331L192.5 169.2L193 170.962V172.725L190.331 172.839L189 172.137L187 170.962L185 169.787L182.421 169.401L179.834 169.2L176.5 169.401L175 169.787L174 170.375L173 170.962L172 172.137L171.259 173.795L167.5 175.662Z" fill="black"/>
<g clip-path="url(#clip0_20_2)">
<path d="M112.723 75.2872C112.728 75.9315 112.749 76.6147 112.77 77.3234C112.829 79.2476 112.893 81.3598 112.658 83.3923C112.323 86.2835 111.386 88.9242 109.063 90.5636C106.664 92.2569 105.117 92.8631 103.377 93.0762C102.489 93.1849 101.528 93.194 100.338 93.1732C99.9896 93.1672 99.6213 93.1585 99.2309 93.1494C98.2992 93.1276 97.2416 93.1028 96.0285 93.1028C94.82 93.1028 93.7602 93.1274 92.8224 93.1492C92.4245 93.1584 92.0485 93.1671 91.6923 93.1732C90.486 93.194 89.5033 93.1851 88.5925 93.076C86.8078 92.8623 85.2187 92.2547 82.8223 90.5636C80.5012 88.9255 79.6057 86.2865 79.3135 83.3948C79.1169 81.4485 79.1949 79.4328 79.2667 77.5767C79.2976 76.7779 79.3274 76.0086 79.3336 75.2872H96.0285H112.723Z" fill="#AAA9A9" stroke="black"/>
<path d="M146.795 75.2872C146.8 75.9315 146.821 76.6147 146.842 77.3234C146.901 79.2476 146.966 81.3598 146.73 83.3923C146.395 86.2835 145.458 88.9242 143.136 90.5636C140.736 92.2569 139.189 92.8631 137.449 93.0762C136.561 93.1849 135.6 93.194 134.41 93.1732C134.062 93.1672 133.693 93.1585 133.303 93.1494C132.371 93.1276 131.314 93.1028 130.101 93.1028C128.892 93.1028 127.832 93.1274 126.895 93.1492C126.497 93.1584 126.121 93.1671 125.764 93.1732C124.558 93.194 123.576 93.1851 122.665 93.076C120.88 92.8623 119.291 92.2547 116.895 90.5636C114.573 88.9255 113.678 86.2865 113.386 83.3948C113.189 81.4485 113.267 79.4328 113.339 77.5767C113.37 76.7779 113.399 76.0086 113.406 75.2872H130.101H146.795Z" fill="#FFFAFD" stroke="black"/>
<path d="M112.723 75.2872C112.728 75.9315 112.749 76.6147 112.77 77.3234C112.829 79.2476 112.893 81.3598 112.658 83.3923C112.323 86.2835 111.386 88.9242 109.063 90.5636C106.664 92.2569 105.117 92.8631 103.377 93.0762C102.489 93.1849 101.528 93.194 100.338 93.1732C99.9896 93.1672 99.6213 93.1585 99.2309 93.1494C98.2992 93.1276 97.2416 93.1028 96.0285 93.1028C94.8199 93.1028 93.7602 93.1274 92.8224 93.1492C92.4244 93.1584 92.0484 93.1671 91.6923 93.1732C90.486 93.194 89.5033 93.1851 88.5925 93.076C86.8078 92.8623 85.2187 92.2547 82.8223 90.5636C80.5012 88.9255 79.6057 86.2865 79.3135 83.3948C79.1169 81.4485 79.1949 79.4328 79.2667 77.5767C79.2976 76.7779 79.3274 76.0086 79.3336 75.2872H96.0285H112.723Z" fill="#AAA9A9" stroke="black"/>
<path d="M146.795 75.2872C146.8 75.9315 146.821 76.6147 146.842 77.3234C146.901 79.2476 146.966 81.3598 146.73 83.3923C146.395 86.2835 145.458 88.9242 143.136 90.5636C140.736 92.2569 139.189 92.8631 137.449 93.0762C136.561 93.1849 135.6 93.194 134.41 93.1732C134.062 93.1672 133.693 93.1585 133.303 93.1494C132.371 93.1276 131.314 93.1028 130.101 93.1028C128.892 93.1028 127.832 93.1274 126.894 93.1492C126.497 93.1584 126.121 93.1671 125.764 93.1732C124.558 93.194 123.576 93.1851 122.665 93.076C120.88 92.8623 119.291 92.2547 116.895 90.5636C114.573 88.9255 113.678 86.2865 113.386 83.3948C113.189 81.4485 113.267 79.4328 113.339 77.5767C113.37 76.7779 113.399 76.0086 113.406 75.2872H130.101H146.795Z" fill="#AAA9A9" stroke="black"/>
</g>
<path d="M160 74.6125L144.5 74.6125C144.382 74.6125 143.605 74.5694 143.605 74.8334V75.7896C143.605 76.0536 144.382 75.7875 144.5 75.7875H160.5C160.618 75.7875 160.769 76.0536 160.769 75.7896V74.8334C160.769 74.5694 160.118 74.6125 160 74.6125Z" fill="#1E1E1E"/>
<path d="M51.261 184.388L51.261 177.929L52.6717 171.876L56.4885 167.552L63.3588 164.958L69.4656 167.552L74.8091 171.876L77.0992 179.658L77.4809 183.117L77.8626 186.576" stroke="black" stroke-width="3"/>
<path d="M73.5 74.6125H81.8281V75.3481L79.5 75.2L79 76.2676H73.0399L73.5 74.6125Z" fill="#090909"/>
<path d="M127.655 213.827L127.285 211.974L133.126 212.424L133.146 212.425H133.165H137.665H143.665H152.165H164.97L160.731 214.378L154.067 217.242L139.772 222.975L139.769 222.976L130.071 226.794L128.031 227.443L126.869 227.721H125.998L126.274 227.436L127.658 226.974L127.83 226.917L127.925 226.763L128.59 225.688L128.617 225.644L128.635 225.595L128.97 224.67L129 224.588V224.5V223.5V223V222.947L128.989 222.896L128.654 221.321L128.652 221.312L128.65 221.304L128.159 219.341L127.663 213.88L127.66 213.853L127.655 213.827Z" fill="#D9D9D9" stroke="black"/>
<path d="M48.3507 182.145L78.7533 183.681C80.4091 183.764 81.7792 184.998 82.0351 186.636L85.2305 207.094C85.5775 209.315 83.7698 211.283 81.5269 211.125L51.803 209.032C50.2237 208.921 48.9155 207.763 48.613 206.209L44.739 186.309C44.3045 184.077 46.08 182.03 48.3507 182.145Z" fill="#847306" stroke="black"/>
<path d="M99.2367 119.128L106 122.2L115.267 123.451L122.901 122.587L130.534 119.128" stroke="black"/>
<defs>
<clipPath id="clip0_20_2">
<rect width="68.6579" height="21.0354" fill="white" transform="translate(78.7612 72.4431)"/>
</clipPath>
</defs>
</svg>
