<svg width="141" height="148" viewBox="0 0 141 148" fill="none" xmlns="http://www.w3.org/2000/svg">
<path d="M54.304 82.2556L104.7 36.558L115.978 57.0432L123.379 71.5403L125.846 82.2556L130.78 92.6558L135.009 104.632L135.714 113.141L136.418 118.499L135.009 125.117L129.722 131.735L122.674 136.462L88.489 140.875L54.304 82.2556Z" fill="#E9E7E1"/>
<path d="M2.73484 92.8536C2.23126 90.6009 4.01204 88.4788 6.31984 88.5814L79.2588 91.8244C80.8744 91.8963 82.2262 93.0659 82.5284 94.6536L91.2395 140.412C91.6725 142.686 89.8138 144.755 87.5049 144.568L15.5048 138.734C13.9813 138.61 12.718 137.512 12.3847 136.021L2.73484 92.8536Z" fill="#8C4B45" stroke="#0A0908"/>
<path d="M118.008 135.132L118.018 135.15L118.029 135.166C118.384 135.694 118.144 136.416 117.543 136.63L89.069 146.774C88.6326 146.929 88.1701 146.997 87.7082 146.972L16.4331 143.223C15.3582 143.166 14.5151 142.285 14.5064 141.208C14.4968 140.02 15.5 139.071 16.6856 139.146L88.9364 143.74C89.5697 143.78 90.2049 143.686 90.8003 143.463L115.526 134.225C116.466 133.873 117.52 134.258 118.008 135.132Z" fill="#8C4B45" stroke="#0A0908"/>
<path d="M120.07 31.8003C122.086 37.2244 122.49 41.4266 118.053 43.8538C112.973 46.6335 110.837 43.2511 105.708 39.635C100.578 36.019 100.578 28.1842 105.708 25.4631C109.988 23.9655 116.589 26.6859 120.07 31.8003Z" fill="#0A0908"/>
<path d="M64.2831 33.0056C63.8571 37.207 56.2176 42.0457 54.8733 43.251C51.5126 46.2644 44.8321 39.9417 45.2568 35.723C45.6814 31.5043 48.3995 27.2893 53.529 24.5681C58.2339 23.3628 64.9552 26.3762 64.2831 33.0056Z" fill="#0A0908"/>
<path d="M112.848 46.2644V46.3623L112.885 46.453C116.052 54.2235 116.656 60.4848 115.58 65.5112C114.505 70.5313 111.744 74.3718 108.08 77.2876C100.729 83.1383 89.7735 85.2398 81.749 85.5409C73.7837 85.5384 62.9779 82.4047 55.5998 76.681C51.9151 73.8226 49.118 70.3439 47.9278 66.3215C46.7417 62.3127 47.1335 57.7028 49.9359 52.5293L49.9963 52.4178V52.2911C49.9963 51.6473 50.2358 50.7575 50.7301 49.6674C51.2198 48.5875 51.9407 47.3513 52.8583 46.0274C54.6931 43.3799 57.2921 40.4132 60.3322 37.685C63.3728 34.9564 66.8405 32.4792 70.4088 30.7979C73.9801 29.1151 77.6202 28.2442 81.0228 28.6801L81.0792 28.6873L81.1359 28.6817C90.0686 27.7917 98.0181 30.7667 103.739 34.7111C106.599 36.6832 108.89 38.8898 110.461 40.9598C112.047 43.0491 112.848 44.932 112.848 46.2644Z" fill="#E9E7E1" stroke="#0A0908"/>
<path d="M85.1192 64.4651C85.1192 65.5302 82.4109 68.5633 79.07 68.5633C75.7292 68.5633 73.0209 65.5302 73.0209 64.4651C73.0209 63.4 75.7292 62.5366 79.07 62.5366C82.4109 62.5366 85.1192 63.4 85.1192 64.4651Z" fill="#0A0908"/>
<path d="M47.6522 80.8347L48.9965 76.616L50.3407 73L52 75.5L55 78L59 80.5L63.1111 82.3767L63.1111 85.6562L61.7669 88.6695L60.4226 90.4776L43.5 89.218L44.9637 86.2588L46.308 82.6428L47.6522 80.8347Z" fill="#0A0908"/>
<path d="M64.4739 87.8417L64.4739 85.1798L64.4739 83.0503L65.4808 83.5826L66.4877 84.115L69.005 84.6474L71.5223 85.1797L74.5431 85.7121L76.7718 86.0409L79.0742 86.2445L81.0881 86.2445L83.6054 86.2445L85.6192 86.2445L87.6331 86.0409L89.6469 85.7121L91.6608 85.1798L93.6746 84.6474L95.6885 84.115L97.2174 83.6302L95.8731 86.0409L94.1781 88.374L93.6746 89.4388L93.1712 91.5683L92.6068 94.7625L92.1643 99.0215L91.6608 104.345L91.1682 107.007L90.1504 109.137L88.64 111.798L87.1354 113.764L85.6193 104.878L85.1158 101.151L84.6123 99.0215L84.1089 96.892L83.6054 94.7625L83.1019 93.6977L82.095 92.1006L81.1806 91.4649L78.3978 90.8623L62.4601 90.5035L63.6109 89.4388L64.4739 87.8417Z" fill="#0A0908"/>
<path d="M96.5453 87.849L97.8895 85.4382L99.0481 84.2729L99.9059 83.0276L103.266 81.8222L105.758 80.7272L107.52 79.6163L108.577 78.8757L109.634 78.1351L110.692 77.0242L111.749 75.9132L113.511 73.6914L114.693 72.1794L115.365 70.3714L116.037 67.358L116.709 63.742L116.709 58.3179L118.725 61.934L121.414 66.7554L122.086 68.5634L122.758 70.3714L123.43 72.1794L124.103 73.9874L124.775 76.3981L125.447 78.8088L126.119 81.2195L126.119 82.4249L125.447 83.0276L125.447 84.8356L125.447 87.849L124.775 89.657L124.103 92.6704L122.758 95.6837L122.086 98.6971L121.414 101.108L120.742 102.916L120.07 105.327L118.053 108.34L116.037 111.353L114.021 114.367L103.939 123.407L95.201 131.844L89.824 132.447L87.1355 116.175L93.1846 108.943L94.5289 105.327L94.5289 100.505L95.201 92.6704L95.6886 90.5036L96.5453 87.849Z" fill="#0A0908"/>
<path d="M118.449 110.148L119.793 109.545L123.154 108.34L125.17 107.737H129.203L131.219 108.34L131.892 108.942L133.236 109.545L134.58 110.148L135.924 111.353L136.596 113.161L137.269 114.969L137.941 116.777V119.791L137.269 123.407L136.596 125.215L135.252 127.023L133.908 128.831L132.564 130.036L130.547 132.447L127.859 134.255L123.826 136.063L119.15 136.778V134.255L117.035 132.996H110.692H98.0044L102.99 126.42L107.695 121.599L112.4 117.983L115.76 114.969L117.105 112.558L118.449 110.148Z" fill="#0A0908"/>
<path d="M126.119 83.0275L125.447 81.8222L126.119 81.2195L128.807 86.6436L130.824 91.465L133.512 97.4917L134.857 102.313L135.529 104.724L136.201 108.34L136.873 113.764L134.857 110.751L134.857 106.532L132.84 99.9024L131.496 96.2864L126.119 83.0275Z" fill="#0A0908"/>
<path d="M118.093 110.722L119.15 108.5L119.855 107.389L120.912 106.278L121.969 105.538L123.379 105.167L124.789 104.797H126.551H128.313H129.37L130.427 105.167L131.837 105.908L132.84 106.532L133.513 107.134H134.185L135.714 106.649L136.066 107.76V108.871L134.185 108.942L133.247 108.5L131.837 107.76L130.427 107.019L128.609 106.775L126.786 106.649L124.436 106.775L123.379 107.019L122.674 107.389L121.969 107.76L121.264 108.5L120.742 109.545L118.093 110.722Z" fill="#0A0908"/>
<g clip-path="url(#clip0_31_370)">
<path d="M79.4831 47.4544C79.4865 47.8605 79.5011 48.2911 79.5163 48.7378C79.5577 49.9507 79.6031 51.2821 79.4372 52.5632C79.2012 54.3855 78.5409 56.05 76.9036 57.0833C75.2121 58.1506 74.122 58.5327 72.8955 58.6671C72.2694 58.7356 71.5925 58.7413 70.7534 58.7282C70.5079 58.7244 70.2484 58.7189 69.9732 58.7132C69.3165 58.6995 68.571 58.6838 67.716 58.6838C66.8641 58.6838 66.1172 58.6993 65.4562 58.7131C65.1757 58.7189 64.9107 58.7244 64.6597 58.7282C63.8094 58.7413 63.1168 58.7357 62.4748 58.6669C61.2168 58.5322 60.0967 58.1492 58.4077 57.0833C56.7716 56.0508 56.1404 54.3874 55.9345 52.5647C55.7959 51.338 55.8509 50.0675 55.9015 48.8976C55.9233 48.394 55.9443 47.9092 55.9487 47.4544H67.716H79.4831Z" fill="black" stroke="black"/>
<path d="M79.4831 47.4544C79.4865 47.8605 79.5011 48.2911 79.5163 48.7378C79.5577 49.9507 79.6031 51.2821 79.4372 52.5632C79.2012 54.3855 78.5409 56.05 76.9036 57.0833C75.2121 58.1506 74.122 58.5327 72.8955 58.6671C72.2694 58.7356 71.5925 58.7413 70.7534 58.7282C70.5079 58.7244 70.2484 58.7189 69.9732 58.7132C69.3165 58.6995 68.571 58.6838 67.716 58.6838C66.8641 58.6838 66.1172 58.6993 65.4562 58.7131C65.1757 58.7189 64.9107 58.7244 64.6597 58.7282C63.8094 58.7413 63.1168 58.7357 62.4748 58.6669C61.2168 58.5322 60.0967 58.1492 58.4077 57.0833C56.7716 56.0508 56.1404 54.3874 55.9345 52.5647C55.7959 51.338 55.8509 50.0675 55.9015 48.8976C55.9233 48.394 55.9443 47.9092 55.9487 47.4544H67.716H79.4831Z" fill="#8A8A8A" stroke="black"/>
<path d="M103.499 47.4544C103.502 47.8605 103.517 48.2911 103.532 48.7378C103.573 49.9507 103.619 51.2821 103.453 52.5632C103.217 54.3855 102.556 56.05 100.919 57.0833C99.2277 58.1506 98.1376 58.5327 96.9111 58.6671C96.285 58.7356 95.6081 58.7413 94.769 58.7282C94.5236 58.7244 94.264 58.7189 93.9888 58.7132C93.3321 58.6995 92.355 58.7282 91.5 58.7282C90.6481 58.7282 90.1328 58.6993 89.4717 58.7131C89.1913 58.7189 88.9263 58.7244 88.6752 58.7282C87.825 58.7413 87.1324 58.7357 86.4904 58.6669C85.2324 58.5322 84.1124 58.1492 82.4233 57.0833C80.7873 56.0508 80.1561 54.3874 79.9501 52.5647C79.8116 51.338 79.8665 50.0675 79.9171 48.8976C79.9389 48.394 79.9599 47.9092 79.9643 47.4544H91.7316H103.499Z" fill="#8A8A8A" stroke="black"/>
</g>
<path d="M112.806 47.0291L101.881 47.0291C101.798 47.0291 101.25 47.0019 101.25 47.1684V47.771C101.25 47.9375 101.798 47.7697 101.881 47.7697H113.159C113.242 47.7697 113.349 47.9375 113.349 47.771V47.1684C113.349 47.0019 112.89 47.0291 112.806 47.0291Z" fill="#0A0908"/>
<path d="M51.837 47.0292H57.707V47.4928L56.0661 47.3995L55.7136 48.0724H51.5127L51.837 47.0292Z" fill="#0A0908"/>
<path d="M89.9442 133.809L93.8572 134.078L93.8744 134.079H93.8915H97.0633H101.292H107.284H115.39L113.28 134.949L108.586 136.752L98.5119 140.366L98.5091 140.367L91.6777 142.771L90.2464 143.178L90.2166 143.185L90.3098 143.05L90.7785 142.373L90.8099 142.327L90.8307 142.276L91.0669 141.693L91.1034 141.602V141.505V140.875V140.56V140.501L91.0899 140.444L90.8537 139.451L90.8514 139.442L90.8488 139.432L90.508 138.213L90.1599 134.789L90.1569 134.759L90.1504 134.73L89.9442 133.809Z" fill="#8C4B45" stroke="#0A0908"/>
<path d="M33.8672 115.81L33.6485 111.983L34.3543 108.398L35.7003 105.651L38.3526 103.654L43.886 103.665L46.306 105.671L48.6454 108.425L50.3872 113.039L50.7507 115.088L51.1142 117.138" stroke="#0A0908" stroke-width="3"/>
<path d="M29.2278 116.293C28.6751 114.08 30.363 111.912 32.6486 111.899L52.2587 111.788C53.906 111.778 55.3212 112.921 55.6567 114.531L58.0188 125.868C58.4783 128.074 56.7572 130.159 54.5018 130.129L35.2701 129.876C33.6991 129.855 32.3486 128.788 31.9685 127.266L29.2278 116.293Z" fill="#B08D57" stroke="#0A0908"/>
<path d="M69.9774 75.0877L74.7445 77.0241L81.2765 77.8129L86.657 77.2678L92.0375 75.0877" stroke="#0A0908"/>
<defs>
<clipPath id="clip0_31_370">
<rect width="48.3932" height="13.2588" fill="white" transform="translate(55.5453 45.6617)"/>
</clipPath>
</defs>
</svg>
